<svg width="1200" height="1200" xmlns="http://www.w3.org/2000/svg" xmlns:xlink="http://www.w3.org/1999/xlink" version="1.1"><g transform="scale(8.571428571428571) translate(8.664338111877445, 5.999999761581421)">                        <g fill="#ffd6b6"><path xmlns="http://www.w3.org/2000/svg" d="M106.5,66.3c-0.6-0.2-1.3-0.2-1.9-0.2c-2.9,0-5.5,1.6-7,4.1l-9.9-2.4C89,60,86.3,52.3,81.1,47l10.2-12.1  c2.3,1.5,5.1,2.3,8,2.3c0.4,0,0.8,0,1.2-0.1c8.3-0.7,14.4-7.9,13.7-16.2c-0.6-7.7-7.4-13.6-14.9-13.8v0l0,0c-0.1,0-0.1,0-0.2,0  c-0.1,0-0.1,0-0.2,0v0c-0.3,0-0.6,0-0.9,0c-8.3,0.7-14.4,7.9-13.7,16.2c0.3,3.4,1.7,6.5,3.8,8.9L78,44.4c-2.4-1.7-5.2-3.1-8.2-3.8  c-1.9-0.5-3.8-0.7-5.7-0.7c-3.8,0-7.4,0.9-10.7,2.6L41.1,22c1.8-1.6,3.2-3.7,3.8-6.2c1.6-6.4-2.4-12.9-8.8-14.5  c-1-0.2-1.9-0.3-2.9-0.3c-5.4,0-10.3,3.7-11.6,9.2C20.1,16.5,24,23,30.5,24.6c1,0.2,1.9,0.3,2.9,0.3c1.5,0,3-0.3,4.4-0.8L50,44.5  c-3.9,2.9-7,6.9-8.6,11.8l-13-3.2c-0.2-4.3-3.2-8.1-7.6-9.2c-0.8-0.2-1.6-0.3-2.4-0.3c-4.5,0-8.6,3.1-9.7,7.6  c-1.3,5.4,2,10.8,7.3,12.1c0.8,0.2,1.6,0.3,2.4,0.3c4.1,0,7.9-2.6,9.4-6.6l12.7,3.1C39.2,68,41.9,75.7,47.1,81L34.9,95.5  c-1.8-1.1-3.9-1.7-6.1-1.7c-0.3,0-0.7,0-1,0c-6.6,0.5-11.5,6.3-11,12.9c0.5,6.3,5.8,11,11.9,11c0.3,0,0.7,0,1,0  c6.6-0.5,11.5-6.3,11-12.9c-0.2-2.6-1.2-4.9-2.8-6.8l12.2-14.4c2.4,1.7,5.2,3.1,8.2,3.8c1.9,0.5,3.8,0.7,5.7,0.7  c3.8,0,7.4-0.9,10.7-2.6L87.1,106c-1.8,1.6-3.2,3.7-3.8,6.2c-1.6,6.4,2.4,12.9,8.8,14.5c1,0.2,1.9,0.3,2.9,0.3  c5.4,0,10.3-3.7,11.6-9.2c1.6-6.4-2.4-12.9-8.8-14.5c-1-0.2-1.9-0.3-2.9-0.3c-1.5,0-3,0.3-4.4,0.8L78.2,83.5c3.9-2.9,7-6.9,8.6-11.8  l9.8,2.4c0,3.7,2.4,7,6.1,7.9c0.6,0.2,1.3,0.2,1.9,0.2c3.6,0,6.9-2.5,7.8-6.1C113.5,71.8,110.8,67.4,106.5,66.3z"/></g>        </g></svg>